<svg width="20" height="20" viewBox="0 0 20 20" fill="none" xmlns="http://www.w3.org/2000/svg">
<path d="M11.1667 9.40832C11.2449 9.48579 11.3068 9.57796 11.3492 9.67951C11.3915 9.78106 11.4132 9.88998 11.4132 9.99999C11.4132 10.11 11.3915 10.2189 11.3492 10.3205C11.3068 10.422 11.2449 10.5142 11.1667 10.5917L7.34174 14.4083C7.26364 14.4858 7.20164 14.578 7.15933 14.6795C7.11703 14.7811 7.09525 14.89 7.09525 15C7.09525 15.11 7.11703 15.2189 7.15933 15.3205C7.20164 15.422 7.26364 15.5142 7.34174 15.5917C7.49788 15.7469 7.70909 15.834 7.92924 15.834C8.1494 15.834 8.36061 15.7469 8.51674 15.5917L12.3417 11.7667C12.8099 11.2979 13.0729 10.6625 13.0729 9.99999C13.0729 9.33749 12.8099 8.70208 12.3417 8.23332L8.51674 4.40833C8.36153 4.25437 8.15203 4.16758 7.93341 4.16666C7.82374 4.16602 7.71502 4.18704 7.61349 4.22852C7.51196 4.26999 7.41961 4.33109 7.34174 4.40833C7.26364 4.48579 7.20164 4.57796 7.15933 4.67951C7.11703 4.78106 7.09524 4.88998 7.09524 4.99999C7.09524 5.11 7.11703 5.21892 7.15933 5.32047C7.20164 5.42202 7.26364 5.51419 7.34174 5.59166L11.1667 9.40832Z" fill="#4CAF50"/>
</svg>
